<svg xmlns="http://www.w3.org/2000/svg" viewBox="0 0 421.87 87.09"><title>insta-type</title><g id="Layer_2" data-name="Layer 2"><g id="Layer_1-2" data-name="Layer 1"><path d="M10.83,70.84c0,5,5.11,9.06,10.63,9.06a12.33,12.33,0,0,0,6.56-2c5.42-3.65,7-13,7.61-23.44.1-1.56.1-3.54.1-5.52,0-3-.1-7.5-.21-11-.1-4.27-.21-8.75-.21-13a102.69,102.69,0,0,1,1.46-18c-6,6.35-13.44,15.52-13.44,25.52,0,4.79,3.44,7.81,5.73,12.39a3.62,3.62,0,0,1,.42,1.77c0,3.75-4.9,7.61-7.08,8.55a18.88,18.88,0,0,1-9.27-16.36c0-7.08,3-14.48,6.77-21.14C24,10.42,28.86,5,32,2.6,34.38.73,38.23,0,41.88,0c4.58,0,9.06,1,9.06,2.5,0,.21-.1.31-.21.52-2.5,3.65-3.12,11.67-3.12,20.42,0,9.79.83,19.58.83,30.1,0,11.36-4,21.36-11.67,27.92-4,3.44-11.35,5.63-18,5.63-6,0-12.08-1.77-15.73-5.73a10.9,10.9,0,0,1-3-7.82c0-7.29,6-14.68,14.06-14.68.63,0,4.69.1,5.32,2.5C13.33,62.82,10.83,66.88,10.83,70.84Z"/><path d="M100.94,74.27A17.25,17.25,0,0,0,106.57,65c1.25.21,2.91,1.67,2.91,4.27a7.44,7.44,0,0,1-.52,2.4,20.09,20.09,0,0,1-6.46,8.65,10.08,10.08,0,0,1-5.72,2.5A13.9,13.9,0,0,1,83.65,73a31.39,31.39,0,0,1-1.15-8.85c0-3.85.42-7.92.73-11.88.21-2.81.63-6.14.63-8.85,0-3-.52-5.21-2.29-5.21-.94,0-2.3,1.56-3.75,4.17a95.6,95.6,0,0,0-5.94,14.17c-3.54,9.89-6.56,20.93-6.56,24.06v.73c0,1-.53,1.46-1.25,1.46-2.4,0-7.5-4.59-8.65-11.67A30.66,30.66,0,0,1,55,65.84c0-3.34.42-8.65.84-13.34.41-5.73.93-11.77.93-16.25a38.75,38.75,0,0,0-.31-5.42,9.57,9.57,0,0,1,1.77-.2,9.32,9.32,0,0,1,8.23,5.93c.63,1.36.73,3.86.73,6.57,0,5.73-1,12.39-1,16,0-.1.1-.21.1-.42a124.81,124.81,0,0,1,4.9-15.1c2.19-5.31,4.48-10.21,6.56-11.67a8.61,8.61,0,0,1,5.21-1.67c5.1,0,10.63,3.86,12,8.23a24.35,24.35,0,0,1,.73,6.57c0,3.75-.42,8-.73,11.77-.1,1.77-.73,6.77-.73,11.14,0,3.34.11,7.92,3.13,7.92A6,6,0,0,0,100.94,74.27Z"/><path d="M123.13,25.21a28.67,28.67,0,0,1,5.83.94c1.46.41,2.5,1.25,2.5,2.08,0,1.35-2.5,1.67-3.54,3a7.14,7.14,0,0,0-1.35,4.17,5.67,5.67,0,0,0,.73,2.81c1.87,3.44,4.16,7.81,4.16,7.81,3.13,6.25,6.57,12.09,6.57,19.69,0,2.92-.84,6.77-3.44,11.77a48,48,0,0,0,6.87-4.58A18,18,0,0,0,147.09,65,4,4,0,0,1,150,69.17c0,3.75-2.19,6.46-4.9,8.65a33.22,33.22,0,0,1-18.44,6.56c-8.54,0-20.42-2.5-24.69-11a10.75,10.75,0,0,1-1-4.8c0-2.81.94-5.52,3.86-6.56a3.44,3.44,0,0,0,.62.84,100,100,0,0,0,4.38-11.46,135.67,135.67,0,0,0,3.75-14.17,17.52,17.52,0,0,1-.52-4,9.09,9.09,0,0,1,.41-2.92C114.69,26.77,118.65,25.21,123.13,25.21Zm-13.75,44.9c.52,2.18,7.4,6.66,11.88,6.66a4.29,4.29,0,0,0,2-.41c1.77-.94,2.39-3,2.39-5.52,0-4.48-2-10.42-3.23-13.55a87.51,87.51,0,0,0-4.69-10c-.93,3.34-2,6.77-3.12,10.11C112.92,62.19,110.32,67.09,109.38,70.11Z"/><path d="M146.46,72.61c-.72-2.09-.93-5.84-.93-11.15,0-6.25.31-14.37.73-22.71,0-1.14.1-2.91.2-4.27-3.64-.1-6.45-.31-7-.31a10.34,10.34,0,0,1-.42-2.61c0-.83.21-1.56.83-1.77a33.08,33.08,0,0,1,6.67-.73c.1-2.81.1-5.1.1-8.54,0-5,0-8,1-11.25a3.68,3.68,0,0,1,2.61-.94c3,0,6.87,2.92,8.54,9.9a29.58,29.58,0,0,1,.31,5.52c0,1.56,0,3.23-.1,5.11,2,0,3.75.1,5.42.1a28.76,28.76,0,0,0,4.79-.31,4.64,4.64,0,0,1,.31,1.66c0,1.67-1.25,2.92-4.79,3.55a43.07,43.07,0,0,1-6.15.62c-.21,2.08-.52,4.27-.93,6.36a197.53,197.53,0,0,0-1.46,21.45c0,6.78.83,11.78,2.71,13.23a3.6,3.6,0,0,0,2.5.84c4.16,0,9.37-5.63,10.41-11.67,1.15.1,2.92,1.46,2.92,4.38a8.45,8.45,0,0,1-.63,3.22,15.23,15.23,0,0,1-14.79,10.32C151.88,82.61,148.34,78,146.46,72.61Z"/><path d="M213.45,75.94c3.75,0,8-7.4,9-10.94,1.14.32,2.6,1.67,2.6,4.38a9.16,9.16,0,0,1-.31,2.29c-1.77,5.21-7,10.83-13.44,10.83a15.6,15.6,0,0,1-8.23-3,8.78,8.78,0,0,1-3.44-4.68,40.62,40.62,0,0,1-1.25-9.38c0-1.35.11-2.71.21-4.38,0-.41.1-.83.1-1.25-1.45,5-6.45,19.69-13,22a8.33,8.33,0,0,1-2.71.42c-3.54,0-7-2.39-9.47-6.35-2.82-4.38-4.69-10.73-4.9-17.4V57.29c0-10.62,4.27-23.43,12.92-26.87a14.39,14.39,0,0,1,5.52-1,16.19,16.19,0,0,1,13.23,7,30.66,30.66,0,0,0,.41-3.75c.11-1.05.84-1.57,2-1.57,3.23,0,9.07,3.75,9.17,8.34,0,1-.21,3.64-.52,6.77-.63,5.94-1.35,14-1.35,20,0,4.89.52,8.65,2.08,9.37A3.85,3.85,0,0,0,213.45,75.94Zm-23.23-8.23C193.55,62,196.88,52.4,198.76,44c-.31-3.33-3-8-6.46-8a5.21,5.21,0,0,0-3.65,1.77c-4.27,4.48-6.77,16.46-6.77,25,0,5.31,1.46,10.31,3,10.31S188.34,70.94,190.22,67.71Z"/><path d="M249.05,50.29a10.12,10.12,0,0,1-5.73-2.3c1.46-1.87,2.19-5.41,2.19-8.43,0-2.4-.52-4.59-2.19-5.11a7.58,7.58,0,0,0-1.35-.21c-5.11,0-8.13,9.59-8.13,19.48,0,7.82,1.88,15.94,5.94,19.59a9.76,9.76,0,0,0,6.67,2.39,13.67,13.67,0,0,0,7.6-2.39A21.06,21.06,0,0,0,262.38,60c1.88,0,3.65,1.25,3.65,4.27,0,3.23-1.67,8.23-6.15,12.51a21.76,21.76,0,0,1-15.1,6.14,23.3,23.3,0,0,1-18.13-9c-3.23-4.37-5.2-11.87-5.2-18.85s1.77-14.27,5.62-19.59a17.73,17.73,0,0,1,14.27-7.71c5.63,0,10.73,2.82,12.92,7A14.36,14.36,0,0,1,255.61,41C255.61,45,254,50.29,249.05,50.29Z"/><path d="M258.11,28.1c0-8.75.42-17.19,1.57-21.57C260.61,2.58,263,.8,265.82.8A11,11,0,0,1,274,4.45c3.75,4.06,5.52,10.73,5.52,16.25,0,10.42-3.54,20.94-7.61,32.19v2.6c0,9.9.63,18,4.28,20.21a2.87,2.87,0,0,0,1.56.42c1.66,0,3.33-1.35,4.79-3.12a19.13,19.13,0,0,0,3.85-7.92c1.15.21,2.82,2.08,2.82,5a7.59,7.59,0,0,1-1.25,4.17c-2,3.33-5.73,6.77-8.13,7.7a14,14,0,0,1-5,.94,12.67,12.67,0,0,1-10.42-5.31c-3.12-4.27-4.16-13.65-5.31-25.63C258.43,45.29,258.11,36.33,258.11,28.1Zm15.11-5.84c0-3.75-.73-6.87-2.81-6.87s-2.3,4.06-2.3,9.37a126.66,126.66,0,0,0,1.15,18S273.22,29.66,273.22,22.26Z"/><path d="M322.91,61.85c-.94,8-3.33,15.42-9,19a13.8,13.8,0,0,1-7.29,1.87c-7,0-15.11-3.75-18.23-9.48-3-5.31-4.27-12-4.27-18.23,0-9.68,3-19,8.23-22.81a10.55,10.55,0,0,1,6.14-2.5,11.7,11.7,0,0,1,5.32-1.15,19.54,19.54,0,0,1,6.87,1.36A16.82,16.82,0,0,1,321,40.49,54.15,54.15,0,0,1,323.33,54a22.81,22.81,0,0,0,7.18-2.71,11.79,11.79,0,0,0,5.42-6.25A5.93,5.93,0,0,1,339,50a9.09,9.09,0,0,1-2.19,5.42C333.64,59,328.85,61,322.91,61.85ZM299.26,68.2c1.36,4.69,3.54,7.82,5.94,7.82a2.76,2.76,0,0,0,1.25-.32c1.25-.52,2.5-2.18,3.65-4.68A46.93,46.93,0,0,0,312.91,62a42.15,42.15,0,0,1-8-2,26.25,26.25,0,0,1-7.29-4.06A43.34,43.34,0,0,0,299.26,68.2Zm14.79-13.64a34.28,34.28,0,0,0,.21-3.55A24.05,24.05,0,0,0,313,42.89c-1.66-4.17-5.31-7.08-8.23-7.08A3.85,3.85,0,0,0,302,37.06a6.88,6.88,0,0,0-1.67,4.58c0,3.12,1.77,6.46,4.59,9.27A14.77,14.77,0,0,0,314.05,54.56Z"/><path d="M375.1,74.35c2.6-2.19,5.1-6,5.62-9.27,1.25.21,2.92,1.66,2.92,4.27a7.83,7.83,0,0,1-.52,2.4,20.15,20.15,0,0,1-6.46,8.64,10.11,10.11,0,0,1-5.73,2.5,13.89,13.89,0,0,1-13.12-9.79,31,31,0,0,1-1.15-8.86c0-3.85.42-7.91.73-11.87.21-2.81.62-6.15.62-8.86,0-3-.52-5.2-2.29-5.2-.94,0-2.29,1.56-3.75,4.16A98.27,98.27,0,0,0,346,56.64c-3.54,9.9-6.56,20.94-6.56,24.06v.73c0,1-.52,1.46-1.25,1.46-2.39,0-7.5-4.58-8.64-11.67a29.71,29.71,0,0,1-.42-5.31c0-3.33.42-8.64.83-13.33.42-5.73.94-11.77.94-16.25a38.75,38.75,0,0,0-.31-5.42,9.44,9.44,0,0,1,1.77-.21,9.33,9.33,0,0,1,8.23,5.94c.62,1.35.73,3.85.73,6.56,0,5.73-1,12.4-1,16,0-.1.1-.2.1-.41a125.36,125.36,0,0,1,4.9-15.11c2.18-5.31,4.47-10.21,6.56-11.66a8.59,8.59,0,0,1,5.21-1.67c5.1,0,10.62,3.85,12,8.23a24.28,24.28,0,0,1,.73,6.56c0,3.75-.42,8-.73,11.77-.11,1.77-.73,6.77-.73,11.15,0,3.33.1,7.92,3.12,7.92A6.06,6.06,0,0,0,375.1,74.35Z"/><path d="M389.79,55.29c0,6.66,1.25,13.12,4.79,16.77a10.71,10.71,0,0,0,7.92,3.75,14.73,14.73,0,0,0,10.1-4.69,21.27,21.27,0,0,0,5.83-11.35c2,0,3.44,2.08,3.44,4.79a5.32,5.32,0,0,1-.1,1.25,18.63,18.63,0,0,1-5.84,10.41,24.09,24.09,0,0,1-16.35,6.36c-6.15,0-12.92-2.08-17.61-8-3.75-4.69-5.41-11.67-5.41-18.86s1.77-14.79,5.52-20.21a17,17,0,0,1,14.37-7.71c6.25,0,12.3,3.13,14.17,7.3a11,11,0,0,1,1.15,5c0,3.75-2,7.18-5.63,10.1C401.66,53.72,395.41,55.29,389.79,55.29Zm.21-4.9a21,21,0,0,0,7.6-3,11.45,11.45,0,0,0,4.79-8.75c0-2.92-1.87-5.63-4.06-5.63C394.27,33,390.93,42.06,390,50.39Z"/></g></g></svg>